# xmcd CD database file
#
# Track frame offsets:
#	150
#	31299
#	66481
#	90642
#	120767
#	159807
#	198528
#
# Disc length: 3057 seconds
#
# Revision: 0
# Processed by: cddbd v1.5.2PL0 Copyright (c) Steve Scherf et al.
# Submitted via: CDex 1.70beta2
#
DISCID=500bef07
DTITLE=Guy Sweens - Kamadeva
DYEAR=2007
DGENRE=New Age
TTITLE0=Arrows of Desire
TTITLE1=Rati
TTITLE2=Vasanta
TTITLE3=Surrounded by Nymphs
TTITLE4=Lord Shiva's Heart
TTITLE5=The Bodiless
TTITLE6=Son of Krishna
EXTD=YEAR: 2007
EXTT0=
EXTT1=
EXTT2=
EXTT3=
EXTT4=
EXTT5=
EXTT6=
PLAYORDER=
